# xmcd
#
# Track frame offsets: 
#        150
#        12233
#        28936
#        41096
#        55052
#        74471
#
# Disc length: 1212 seconds
#
# Revision: 1
# Processed by: cddbd v1.5.2PL0 Copyright (c) Steve Scherf et al.
# Submitted via: ExactAudioCopy v0.90b4
#
DISCID=4e04ba06
DTITLE=Ya-Ha ! - Überdosis Du
DYEAR=2010
DGENRE=Crossover
TTITLE0=Alles ist
TTITLE1=Novembertag
TTITLE2=Überdosis Du
TTITLE3=Fake Coco Chanel
TTITLE4=Liebe
TTITLE5=Frei
EXTD=
EXTT0=
EXTT1=
EXTT2=
EXTT3=
EXTT4=
EXTT5=
PLAYORDER=
